<svg width="275" height="66" viewBox="0 0 275 66" fill="none" xmlns="http://www.w3.org/2000/svg">
<path d="M59.8871 58.8788H63.3946V58.0685H59.8871V54.8897H64.5845V54.0568H58.9918V63.4175H64.8508V62.5959H59.8871V58.8788Z" fill="#4F2D82"/>
<path d="M85.5564 58.2556C83.5845 57.621 82.9612 57.2697 82.9612 56.2157C82.9612 55.3545 83.7205 54.6858 84.9728 54.6858C86.1514 54.6858 86.973 55.1675 87.4376 56.3801L88.1969 56.0231C87.7549 54.7708 86.7407 53.8699 84.9841 53.8699C83.2275 53.8699 82.0716 54.9351 82.0716 56.2724C82.0716 57.8136 83.0972 58.3633 85.1088 58.9922C87.0976 59.6269 87.5623 60.1198 87.5623 61.0945C87.5623 62.1484 86.65 62.7887 85.2448 62.7887C83.9302 62.7887 82.9782 62.1201 82.5646 60.8168L81.7656 61.1058C82.2076 62.6244 83.4485 63.5876 85.2051 63.5876C87.075 63.5876 88.4576 62.5904 88.4576 61.0321C88.4576 59.4739 87.4943 58.8676 85.5451 58.25L85.5564 58.2556Z" fill="#4F2D82"/>
<path d="M76.7339 56.5896C76.7339 54.9464 75.5723 54.0568 73.4814 54.0568H70.3423V63.4175H71.2262V59.2188H73.5551L75.8443 63.4175H76.8586L74.49 59.1168C75.8443 58.8675 76.7282 58.1025 76.7282 56.5896H76.7339ZM73.4191 58.4255H71.2319V54.884H73.4078C74.9773 54.884 75.8386 55.343 75.8386 56.6293C75.8386 57.9835 74.966 58.4255 73.4248 58.4255H73.4191Z" fill="#4F2D82"/>
<path d="M69.3159 41.7438C62.029 41.7438 60.9524 36.1852 60.9524 27.6743V27.221H79.7136C79.7136 19.6508 75.5205 14.4491 67.6783 14.4491C59.1278 14.4491 54.5098 21.039 54.5098 28.9719C54.5098 36.9048 58.8388 43.4947 67.6217 43.4947C73.0557 43.4947 77.4641 41.4435 79.7703 35.4372L78.4444 35.0066C76.8521 38.7577 74.189 41.7438 69.3159 41.7438ZM61.0034 24.1952C61.3094 19.9851 62.8449 15.9053 67.2817 15.9053C72.0017 15.9053 73.0387 19.5941 73.1463 23.4982C73.1577 23.8609 73.1577 25.1245 73.1577 25.4701H60.9524C60.9524 25.0905 60.9751 24.5862 61.0034 24.1952Z" fill="#4F2D82"/>
<path d="M208.787 41.404V22.4161C208.787 16.7668 206.016 14.3359 200.48 14.3359C195.845 14.3359 192.457 16.5968 190.706 20.4386H190.592V14.2169C189.833 14.8402 188.802 15.5768 186.292 15.5768H180.314V16.9878H184.835V41.3983H179.974V42.8093H195.057V41.3983H190.592V26.7055C190.592 21.4528 193.301 16.3645 198.412 16.3645C201.285 16.3645 203.024 17.985 203.024 22.2404V41.3983H198.559V42.8093H213.252V41.3983H208.787V41.404Z" fill="#4F2D82"/>
<path d="M59.4625 3.52448V2.1419H47.9769V3.52448H53.0539L51.728 8.14255L43.7611 32.5021H43.6478L34.7006 8.02355L33.1424 3.51882H38.8541V2.13623H21.1864V3.51882H26.0935L28.9833 11.31L21.6511 32.4965H21.5377L12.7039 8.14255L11.1457 3.52448H16.2227V2.1419H0V3.52448H3.92677L6.00632 9.0095L18.6479 43.4155H19.8038C19.8038 43.4155 27.5384 21.2431 30.0202 14.0865L40.9336 43.4155H42.1462L53.5752 8.60152L55.3658 3.52448H59.4625Z" fill="#4F2D82"/>
<path d="M94.9395 41.9366C89.4148 41.9366 86.1623 38.3384 84.9554 33.0631H83.5785L85.4314 43.1888C86.032 42.4862 86.814 42.2369 87.6016 42.2369C89.1938 42.2369 91.2167 43.4551 94.8035 43.4551C100.566 43.4551 104.918 40.248 104.918 34.7913C104.918 23.8723 89.2505 26.7564 89.2505 19.6962C89.2505 17.4523 90.8484 15.7864 93.7382 15.7864C98.3166 15.7864 100.878 19.0219 101.977 22.8637H103.331L101.767 14.2112C101.24 14.8005 100.544 15.1235 99.6936 15.1235C97.7897 15.1235 96.6167 14.3358 93.7042 14.3358C88.7235 14.3358 84.8591 17.0443 84.8591 21.9627C84.8591 32.0261 100.283 29.8786 100.283 37.1088C100.283 40.384 97.8973 41.9366 94.9395 41.9366Z" fill="#4F2D82"/>
<path d="M18.3198 60.1311C18.3198 61.6893 17.5491 62.7773 15.8152 62.7773C14.0813 62.7773 13.2994 61.6383 13.2994 60.1084V54.0624H12.3984V60.2614C12.3984 62.12 13.4977 63.5875 15.8039 63.5875C18.1101 63.5875 19.2207 62.0916 19.2207 60.2331V54.0568H18.3198V60.1311Z" fill="#4F2D82"/>
<path d="M180.133 54.0172L176.637 63.4177H177.515L178.575 60.5392H182.723L183.782 63.4177H184.723L181.227 54.0172H180.139H180.133ZM178.864 59.7402L180.626 54.9578H180.66L182.422 59.7402H178.864Z" fill="#4F2D82"/>
<path d="M49.8698 62.2333H49.8414L47.0479 54.0568H46.1187L49.4108 63.4572H50.2607L53.5472 54.0568H52.6746L49.8698 62.2333Z" fill="#4F2D82"/>
<path d="M31.7883 61.7743H31.76L26.5979 54.0568H25.6346V63.4175H26.4846V55.462H26.5073L31.8336 63.4175H32.6326V54.0568H31.7883V61.7743Z" fill="#4F2D82"/>
<path d="M40.5034 54.0568H39.6024V63.4175H40.5034V54.0568Z" fill="#4F2D82"/>
<path d="M152.821 35.4372L151.495 35.0066C149.902 38.7577 147.239 41.7438 142.366 41.7438C135.079 41.7438 134.003 36.1852 134.003 27.6743V27.221H152.764C152.764 19.6508 148.571 14.4491 140.729 14.4491C132.178 14.4491 127.56 21.039 127.56 28.9719C127.56 36.9048 131.889 43.4947 140.672 43.4947C146.106 43.4947 150.514 41.4435 152.821 35.4372ZM134.054 24.1895C134.36 19.9794 135.895 15.8997 140.332 15.8997C145.052 15.8997 146.089 19.5885 146.197 23.4926C146.208 23.8552 146.208 25.1188 146.208 25.4645H134.003C134.003 25.0848 134.025 24.5805 134.054 24.1895Z" fill="#4F2D82"/>
<path d="M169.815 61.7743H169.786L164.624 54.0568H163.661V63.4175H164.511V55.462H164.539L169.866 63.4175H170.659V54.0568H169.815V61.7743Z" fill="#4F2D82"/>
<path d="M140.797 62.7888C138.972 62.7888 137.788 61.2702 137.788 58.675C137.788 56.2725 138.961 54.7029 140.774 54.7029C142.202 54.7029 142.899 55.4735 143.319 56.9524L144.18 56.7371C143.738 55.0032 142.684 53.8756 140.791 53.8756C138.451 53.8756 136.893 55.8645 136.893 58.6977C136.893 61.6838 138.423 63.5934 140.791 63.5934C142.661 63.5934 143.88 62.4431 144.333 60.5959L143.472 60.4089C143.069 61.9785 142.197 62.7888 140.803 62.7888H140.797Z" fill="#4F2D82"/>
<path d="M95.0416 54.0568H94.1464V63.4175H95.0416V54.0568Z" fill="#4F2D82"/>
<path d="M193.137 54.0568H190.768V63.4175H193.137C196.146 63.4175 197.795 61.814 197.795 58.7258C197.795 55.6377 196.185 54.0568 193.137 54.0568ZM193.267 62.6356H191.647V54.867H193.239C195.585 54.867 196.916 56.0626 196.916 58.7258C196.916 61.389 195.602 62.6356 193.267 62.6356Z" fill="#4F2D82"/>
<path d="M178.483 18.2684C178.483 16.0302 176.829 14.336 173.752 14.336C169.157 14.336 166.873 18.4611 165.689 21.7362H165.615V14.1036C164.703 14.8516 163.774 15.5769 161.337 15.5769H154.991V16.9878H159.853V41.3984H154.991V42.8093H170.301V41.3984H165.61V29.3631C165.61 22.9601 168.754 16.0075 172.794 16.0075C173.095 16.0075 173.299 16.0415 173.463 16.1209C172.772 16.6762 172.324 17.5318 172.324 18.4894C172.324 20.2686 173.69 21.5322 175.367 21.5322C177.197 21.5322 178.472 20.008 178.472 18.2627L178.483 18.2684Z" fill="#4F2D82"/>
<path d="M153.048 54.0172L149.551 63.4177H150.43L151.489 60.5392H155.637L156.697 63.4177H157.637L154.141 54.0172H153.053H153.048ZM151.778 59.7402L153.54 54.9578H153.574L155.337 59.7402H151.778Z" fill="#4F2D82"/>
<path d="M114.579 58.5218L111.95 54.0568H110.975L114.108 59.3265V63.4175H115.009V59.3265L118.16 54.0568H117.197L114.579 58.5218Z" fill="#4F2D82"/>
<path d="M99.9489 54.8897H102.969V63.4175H103.87V54.8897H106.896V54.0568H99.9489V54.8897Z" fill="#4F2D82"/>
<path d="M120.897 41.2282C118.743 41.2282 117.854 39.8796 117.854 36.5422V16.9933H124.806V15.5824H117.854V6.24426H116.664C115.893 12.2676 112.867 15.3557 107.394 15.877V16.9876H111.972V36.3098C111.972 39.925 112.675 43.3758 118.551 43.3758C122.256 43.3758 124.506 41.6645 125.679 39.449L126.132 38.548L124.908 37.9644C124.172 39.6076 122.999 41.2226 120.902 41.2226L120.897 41.2282Z" fill="#4F2D82"/>
<path d="M206.22 54.0172L202.724 63.4177H203.603L204.662 60.5392H208.81L209.87 63.4177H210.81L207.314 54.0172H206.226H206.22ZM204.951 59.7402L206.713 54.9578H206.747L208.51 59.7402H204.951Z" fill="#4F2D82"/>
<path d="M127.244 57.8307C126.694 57.8307 126.297 58.2273 126.297 58.7883C126.297 59.3493 126.694 59.7346 127.244 59.7346C127.793 59.7346 128.201 59.3379 128.201 58.7883C128.201 58.2387 127.805 57.8307 127.244 57.8307Z" fill="#4F2D82"/>
<path d="M271.956 44.7754C267.972 54.0682 260.255 61.0548 249.228 65.4348L248.661 65.6672L248.089 65.4348C237.074 61.0548 229.362 54.0682 225.373 44.7754C222.16 37.2902 222.324 31.0402 222.324 27.5101V3.55846C228.433 1.39392 237.878 0 248.48 0C259.082 0 268.89 1.39959 274.999 3.55846V27.1701C274.999 30.5529 275.163 37.2958 271.95 44.7754H271.956Z" fill="white"/>
<path d="M271.956 44.7754C267.972 54.0682 260.255 61.0548 249.228 65.4348L248.661 65.6672L248.089 65.4348C237.074 61.0548 229.362 54.0682 225.373 44.7754C222.16 37.2902 222.324 31.0402 222.324 27.5101V3.55846C228.433 1.39392 237.878 0 248.48 0C259.082 0 268.89 1.39959 274.999 3.55846V27.1701C274.999 30.5529 275.163 37.2958 271.95 44.7754H271.956ZM248.576 24.3652C248.185 23.436 247.228 23.147 245.947 23.147C244.876 23.147 243.505 23.334 242.117 23.3453V30.2469C244.769 29.9862 247.698 29.6746 248.605 31.0232H248.735C249.647 29.6746 252.577 29.9862 255.229 30.2469V23.3453C253.806 23.3453 252.458 23.147 251.387 23.147C250.106 23.147 249.16 23.436 248.763 24.3652H248.576ZM251.359 25.6628H249.126L248.939 26.5411H249.194L249.33 26.1841H250.798L249.347 29.21L249.619 29.3176L251.41 25.7988L251.421 25.7705L251.37 25.6628H251.359ZM244.497 26.0765H244.871V25.7932H244.808C244.706 25.7932 244.604 25.7932 244.502 25.7988C244.315 25.7988 244.134 25.8102 243.924 25.8102C243.737 25.8102 243.584 25.8102 243.392 25.7988C243.278 25.7988 243.171 25.7988 243.052 25.7932H242.989V26.0765H243.363C243.613 26.0765 243.641 26.0765 243.641 26.4051V27.748C243.641 28.0144 243.613 28.0427 243.171 28.0427H242.989V28.326H243.052C243.182 28.326 243.301 28.3203 243.42 28.3203C243.601 28.3203 243.737 28.3147 243.902 28.3147C244.14 28.3147 244.338 28.3147 244.525 28.326C244.621 28.326 244.712 28.326 244.808 28.3317H244.871V28.0484H244.689C244.253 28.0484 244.225 28.02 244.225 27.7537V26.4108C244.225 26.0821 244.253 26.0821 244.497 26.0821V26.0765ZM248.095 27.3401C248.095 27.9804 247.585 28.3883 246.797 28.3883C246.095 28.3883 245.624 28.0144 245.624 27.4817C245.624 26.9491 246.061 26.6601 246.355 26.5411C245.959 26.2918 245.732 25.9688 245.732 25.5948C245.732 25.2209 246.027 24.6542 246.922 24.6542C247.658 24.6542 247.964 25.0735 247.964 25.4645C247.964 25.8555 247.692 26.1785 247.279 26.3768C247.743 26.6091 248.089 26.8868 248.089 27.3344L248.095 27.3401ZM247.024 26.2465C247.262 26.0878 247.562 25.8725 247.562 25.5268C247.562 24.9829 247.098 24.9262 246.899 24.9262C246.486 24.9262 246.214 25.1302 246.214 25.4418C246.214 25.7762 246.463 25.9632 247.03 26.2465H247.024ZM247.557 27.5951C247.557 27.2437 247.392 27.0681 246.633 26.6884C246.299 26.8414 246.044 27.1134 246.044 27.4251C246.044 27.9577 246.525 28.105 246.809 28.105C247.273 28.105 247.557 27.9124 247.557 27.5951ZM254.35 27.3401C254.35 27.9804 253.84 28.3883 253.053 28.3883C252.35 28.3883 251.88 28.0144 251.88 27.4817C251.88 26.9491 252.316 26.6601 252.611 26.5411C252.214 26.2918 251.988 25.9688 251.988 25.5948C251.988 25.2209 252.282 24.6542 253.177 24.6542C253.914 24.6542 254.22 25.0735 254.22 25.4645C254.22 25.8555 253.948 26.1785 253.534 26.3768C253.999 26.6091 254.345 26.8868 254.345 27.3344L254.35 27.3401ZM253.279 26.2465C253.523 26.0878 253.818 25.8725 253.818 25.5268C253.818 24.9829 253.353 24.9262 253.155 24.9262C252.736 24.9262 252.469 25.1302 252.469 25.4418C252.469 25.7762 252.719 25.9632 253.279 26.2465ZM253.818 27.5951C253.818 27.2437 253.653 27.0681 252.894 26.6884C252.56 26.8414 252.305 27.1134 252.305 27.4251C252.305 27.9577 252.787 28.105 253.07 28.105C253.534 28.105 253.818 27.9124 253.818 27.5951ZM224.393 19.5772V27.1191C224.364 31.7031 224.308 42.8148 232.603 52.4419L248.673 39.3414L224.427 19.5715H224.398L224.393 19.5772ZM272.953 19.5772H272.919L248.673 39.347L264.742 52.4476C273.038 42.8205 272.981 31.7088 272.953 27.1191V19.5772ZM272.908 16.693L267.253 18.5742L267.224 18.5403C267.916 18.0643 268.482 17.492 269.043 16.1774C269.332 15.4974 269.644 15.0101 269.984 14.6758C270.341 14.3245 270.732 14.1262 271.009 14.0298C270.324 13.8429 269.587 13.9335 268.817 14.2735C267.553 14.8345 266.901 15.9111 265.553 16.1037L268.318 11.157L263.309 14.3868L263.286 14.3698C263.842 13.7352 264.25 13.0382 264.47 11.616C264.584 10.885 264.765 10.3354 265.009 9.92742C265.269 9.49678 265.598 9.21346 265.842 9.04914C265.128 9.03781 264.459 9.29279 263.796 9.81976C262.703 10.681 262.266 11.8426 261.048 12.4263L262.499 6.9356L258.447 11.31C258.827 10.5507 259.059 9.77443 258.917 8.33518C258.844 7.59856 258.883 7.02626 259.019 6.56728C259.167 6.08564 259.41 5.72867 259.609 5.51334C258.917 5.68333 258.3 6.00065 257.79 6.66928C256.94 7.77988 256.861 9.13413 255.778 9.98975L255.818 4.29508L253.019 9.47411C253.189 8.66383 253.217 7.86487 252.73 6.53895C252.475 5.84199 252.367 5.28102 252.39 4.79939C252.413 4.29508 252.566 3.88711 252.702 3.62646C252.073 3.96077 251.568 4.41974 251.24 5.2017C250.69 6.49929 250.905 7.79688 250.072 8.94148L248.69 3.39413L247.251 9.17946H247.239C247.211 8.32951 247.035 7.53623 246.214 6.3463C245.794 5.73433 245.551 5.21303 245.449 4.74839C245.341 4.25542 245.386 3.82478 245.454 3.54146C244.927 4.0231 244.565 4.65773 244.44 5.49068C244.236 6.87327 244.791 8.04053 244.264 9.30979L241.562 4.30642L241.601 10.2107C241.358 9.41745 240.989 8.70349 239.918 7.76855C239.357 7.28124 238.995 6.83927 238.779 6.40863C238.553 5.96099 238.49 5.52468 238.485 5.23569C238.099 5.83066 237.918 6.52195 238.009 7.36624C238.156 8.76582 238.921 9.74043 238.762 11.1513L234.875 6.95826L236.365 12.5849C235.941 11.905 235.397 11.327 234.173 10.715C233.51 10.3864 233.045 10.0464 232.733 9.68377C232.405 9.30412 232.235 8.90181 232.155 8.6185C231.929 9.29279 231.917 10.0011 232.212 10.7944C232.705 12.1203 233.697 12.8682 233.895 14.3018L229.067 11.1853L231.872 16.2001C231.3 15.6731 230.637 15.2651 229.339 14.9875C228.614 14.8288 228.081 14.6191 227.685 14.3415C227.271 14.0582 227.005 13.7069 226.857 13.4575C226.806 14.1658 226.965 14.8515 227.447 15.5428C228.257 16.71 229.509 17.1803 229.957 18.5459L224.478 16.7214L227.226 19.6055H270.171L272.919 16.727L272.908 16.693ZM254.214 52.6629C254.26 52.6233 254.413 52.4476 254.362 52.4193C254.282 52.3796 254.118 52.4306 253.886 52.4306C253.653 52.4306 253.41 52.2833 253.376 52.0396C253.336 51.7166 253.483 51.5127 253.738 51.2917C253.823 51.218 254.05 51.116 254.112 51.0084C254.141 50.8384 254.186 50.6344 254.243 50.4757C254.328 50.2491 254.469 50.0394 254.622 49.7731C254.702 49.6314 254.753 49.3481 254.685 49.2688C254.475 49.4331 253.772 49.9601 253.421 49.8864C253.257 49.8524 253.245 49.8524 253.104 49.9091C252.809 50.0281 252.498 50.0961 252.186 49.7618C251.993 49.7448 251.789 50.1074 251.687 50.2491C251.551 50.4361 251.421 50.5664 251.234 50.7024C251.081 50.81 250.781 50.963 250.582 50.8554C250.367 50.7364 250.367 50.4077 250.373 50.2434C250.384 49.9714 250.514 49.3085 250.786 48.6398C250.82 48.5605 251.036 48.0732 251.036 47.9259C251.036 47.8862 251.007 47.8635 250.968 47.8635C250.877 47.8635 250.605 48.0165 250.458 48.0165C250.288 48.0165 250.152 47.9769 250.038 47.8012C249.851 47.5066 249.885 46.6906 249.783 46.447C249.596 46.5036 249.443 46.498 249.313 46.3166C249.16 46.1013 249.018 45.8407 248.922 45.58C248.882 45.478 248.78 45.172 248.718 45.0247C248.605 45.2684 248.559 45.4213 248.486 45.6423C248.446 45.767 248.338 46.0333 248.287 46.192C248.236 46.3563 248.1 46.5376 247.97 46.5376C247.879 46.5376 247.806 46.5149 247.766 46.4866C247.715 46.4866 247.692 46.5489 247.653 46.6566C247.585 46.8379 247.585 46.9853 247.539 47.1722C247.46 47.5122 247.387 47.9202 247.075 47.9599C246.911 47.9825 246.831 47.9259 246.701 47.8635C246.389 47.7105 246.44 48.0052 246.525 48.2659C246.582 48.4415 246.752 48.7532 246.877 49.1328C246.996 49.5068 247.245 50.3341 247.251 50.5607C247.251 50.827 246.888 51.065 246.548 50.7817C246.452 50.7024 246.231 50.4474 246.038 50.3964C245.783 50.3284 245.517 50.1244 245.42 49.9827C245.364 49.9827 245.114 50.0904 245.046 50.1131C244.361 50.3511 243.817 50.1641 243.59 50.0507C243.409 49.9601 243.199 49.8694 243.08 49.6881C243.046 49.6428 243.001 49.5691 242.927 49.5861C242.848 49.6031 242.842 49.7561 242.842 49.8128C242.842 49.9997 242.91 50.1924 242.995 50.3567C243.091 50.5381 243.12 50.5777 243.25 50.7194C243.363 50.8497 243.307 50.963 243.21 51.0027C243.21 51.15 243.38 51.1727 243.471 51.2463C243.579 51.3313 243.703 51.439 243.766 51.5523C243.845 51.6883 243.907 51.7676 243.913 51.9546C243.913 52.0963 243.771 52.2946 243.392 52.2606C243.307 52.5269 243.613 52.7196 243.817 52.8273C243.93 52.8896 244.055 52.9236 244.157 52.9972C244.264 53.0766 244.406 53.1842 244.378 53.2692C244.536 53.3316 244.723 53.2692 244.933 53.3032C245.063 53.3259 245.25 53.4449 245.352 53.5412C245.46 53.6489 245.522 53.7849 245.522 53.9492C245.522 54.5498 244.542 54.6971 244.542 54.6971C244.797 55.0541 245.262 55.1391 245.766 55.1391C245.987 55.1391 246.123 55.0768 246.293 55.1108C246.418 55.1334 246.52 55.2468 246.52 55.3714C246.599 55.4564 246.758 55.4791 246.905 55.4791C247.018 55.4791 247.075 55.4621 247.177 55.4168C247.302 55.3601 248.18 54.9691 248.395 54.9521L248.293 58.3009H249.313C249.313 58.3009 249.211 55.4678 249.194 54.9408C249.324 54.9805 249.398 55.0598 249.63 55.2014C249.817 55.3204 250.384 55.5584 250.605 55.4451C250.662 55.1958 251.047 55.2694 251.602 55.3261C251.733 55.3374 252.226 55.3034 252.356 55.2524C252.594 55.1561 252.832 55.1051 253.013 54.8728C252.503 54.7935 252.18 54.5215 252.118 54.3288C252.056 54.1362 252.044 53.9322 252.214 53.8359C252.322 53.7735 252.305 53.8359 252.379 53.7282C252.447 53.6262 252.566 53.4732 252.69 53.4222C252.838 53.3656 253.359 53.4562 253.404 53.2409C253.319 53.1446 253.438 53.0369 253.5 53.0029C253.591 52.9519 253.653 52.9292 253.75 52.8952C253.886 52.8442 254.09 52.7536 254.214 52.6459V52.6629ZM234.649 45.6027C238.179 45.6027 241.04 42.7298 241.046 39.1827C241.052 35.6299 238.201 32.7458 234.671 32.7344C231.147 32.7344 228.28 35.6016 228.274 39.1544C228.268 42.7072 231.124 45.5913 234.654 45.6027H234.649ZM238.604 36.4175C238.615 36.6102 238.49 37.2108 238.417 37.3015C238.349 37.3242 238.173 37.3185 238.026 37.3185C237.941 37.3185 237.912 37.3355 237.861 37.4205C237.697 37.6925 237.555 37.8851 237.385 38.2081C237.351 38.5877 237.334 38.8767 237.266 39.3187C237.238 39.4774 237.227 39.5907 237.108 39.7607C236.977 39.9477 236.66 40.2367 236.524 40.3386C236.371 40.4576 236.479 40.622 236.598 40.588C236.66 40.571 237.074 40.3896 237.142 40.3726C237.357 40.3046 237.663 40.1233 237.963 40.3443C238.15 40.4746 238.785 40.9279 238.927 41.0583C239.102 41.2113 239.165 41.3246 239.227 41.4832C239.357 41.8119 239.357 42.2425 239.346 42.3105C239.227 42.3615 238.547 42.3389 238.383 42.2765C238.332 42.1689 238.354 41.7779 238.207 41.6306C238.094 41.5229 238.003 41.4436 237.867 41.3699C237.601 41.2226 237.487 41.1886 237.283 41.2849C237.062 41.3926 236.575 41.7269 236.218 41.9139C236.122 42.4012 235.612 42.9282 235.374 43.2738C234.745 43.7951 234.082 44.1294 233.476 44.5601C232.773 44.4184 231.543 43.8234 231.033 43.3078C231.662 42.5995 232.235 42.1519 232.688 41.7156C232.869 41.1886 233.646 39.6417 233.464 39.4264C233.017 38.8994 232.087 37.3242 232.495 36.9218C231.651 37.2902 230.353 37.6188 229.532 37.5168C229.254 37.4828 229.243 36.9048 229.594 36.9048C230.863 36.9048 232.099 36.5025 232.099 35.8339C232.099 35.3919 231.657 35.1653 231.509 35.052C231.322 34.9046 231.674 34.6666 231.991 34.763C232.325 34.865 232.643 35.0633 232.796 35.4826C232.841 35.6073 232.852 35.8226 233.022 35.8226C233.255 35.8226 234.326 35.2503 234.195 34.4797C234.15 34.2247 233.963 34.0433 233.804 33.93C233.663 33.828 233.617 33.7827 233.617 33.7147C233.617 33.6184 233.833 33.5447 233.986 33.5447C234.32 33.5447 234.802 33.913 234.915 34.3663C235.011 34.7743 234.943 35.5336 233.85 36.2079C233.731 36.2815 233.719 36.3722 233.85 36.3495C234.235 36.2759 235.68 35.8792 235.85 35.8962C235.963 36.0436 236.054 36.3722 236.003 36.5479C235.963 36.6952 235.068 37.1938 234.547 37.5735C235.187 38.0154 235.544 38.3724 235.674 38.5028C235.776 38.6331 235.935 38.9277 235.986 39.0241C236.031 39.1034 236.195 39.0751 236.218 39.0071C236.314 38.7011 236.49 38.0608 236.547 37.9588C236.598 37.8625 237.3 36.7972 237.391 36.6895C237.544 36.5139 237.737 36.4742 237.941 36.4402C238.031 36.4289 238.496 36.4005 238.604 36.4062V36.4175ZM262.629 45.6027C266.159 45.6027 269.021 42.7298 269.026 39.1827C269.032 35.6299 266.176 32.7458 262.652 32.7344C259.127 32.7344 256.26 35.6016 256.254 39.1544C256.249 42.7072 259.104 45.5913 262.635 45.6027H262.629ZM265.507 34.9386C265.655 34.8876 266.448 34.627 266.72 34.9386C266.255 35.1879 265.728 35.5789 265.411 35.9642C265.014 35.6696 263.972 35.3466 263.598 35.3749C263.547 34.848 263.349 34.2587 263.128 33.7544C263.598 33.675 264.012 34.3323 264.091 34.4627C264.142 34.5533 264.204 34.5703 264.284 34.5193C264.306 34.5023 264.782 34.2247 264.884 34.1623C264.958 34.117 265.031 34.1397 265.065 34.219C265.111 34.321 265.326 34.848 265.343 34.882C265.377 34.9556 265.434 34.9783 265.513 34.95L265.507 34.9386ZM263.275 35.7432C263.337 35.7262 263.417 35.7206 263.49 35.7206C264.068 35.7206 264.986 36.0776 265.292 36.3269C265.417 36.6159 265.536 37.5281 265.502 37.6925C265.298 38.4064 264.618 39.585 264.618 40.1857C264.618 40.707 264.72 41.2169 265.269 41.9026C265.558 42.2652 266.085 42.8035 266.414 43.0868C265.87 43.6478 265.043 44.1408 264.533 44.2994C264.284 44.0784 262.89 43.0188 262.521 42.8148C261.921 42.4069 261.496 41.9082 261.416 41.3586C261.122 41.2793 259.733 40.9733 259.274 40.8713C258.889 40.792 258.748 40.758 258.566 41.0073C258.385 41.2509 258.272 41.5002 258.062 41.4606C257.858 41.4209 257.813 41.1433 257.728 40.792C257.677 40.588 257.541 40.469 257.382 40.3443C257.155 40.1687 257.014 40.0383 257.031 39.908C257.048 39.7947 257.161 39.738 257.563 39.6247C257.762 39.568 257.858 39.5114 257.954 39.381C258.096 39.194 258.294 38.8201 258.481 38.8541C258.657 38.8824 258.719 39.1827 258.804 39.4264C258.883 39.67 258.917 39.806 259.257 39.8513C259.915 39.9363 261.065 40.0837 261.173 39.7323C260.459 39.653 260.113 39.2054 260.005 38.9107C259.903 38.6217 259.609 37.1428 259.592 37.0408C259.569 36.8878 259.337 36.7745 259.014 36.6385C258.793 36.5422 258.629 36.4402 258.629 36.3155C258.629 36.1909 258.855 36.0549 259.133 35.9076C259.257 35.8396 259.405 35.7602 259.495 35.4769C259.535 35.3579 259.631 34.9896 259.79 34.9783C259.994 34.967 260.062 35.1823 260.209 35.3919C260.294 35.5166 260.368 35.6526 260.68 35.6639C260.85 35.6639 261.224 35.6753 261.28 35.8452C261.32 35.9699 261.173 36.1229 261.037 36.2532C260.708 36.5535 260.64 36.6725 260.64 36.8822C260.64 37.1032 261.071 38.1458 261.348 38.5254C261.45 38.5821 262.113 38.7521 262.618 38.7181C262.895 38.7011 263.224 37.9191 263.281 37.6585C263.247 37.6471 262.493 37.5111 262.323 37.4601C262.079 37.3922 261.977 36.5309 262.006 36.4629C262.13 36.3609 263.128 35.7942 263.286 35.7546L263.275 35.7432ZM266.986 42.4465C266.131 41.6476 265.689 41.0186 265.689 40.112C265.689 38.8711 266.612 38.0778 266.686 37.0975C266.709 36.7462 266.641 36.4345 266.493 36.1342C267.281 36.1852 268.125 37.4148 267.377 38.4121C267.859 38.4008 268.199 38.9844 267.768 39.4944C267.7 39.3357 267.519 39.2677 267.343 39.2677C266.839 39.2677 266.499 39.721 266.499 40.3216C266.499 40.8429 266.799 41.3473 267.372 41.8912C267.275 42.0782 267.145 42.2539 266.992 42.4409L266.986 42.4465Z" fill="#4F2D82"/>
</svg>
